<?xml version="1.0" encoding="UTF-8"?> <!-- Generator: Adobe Illustrator 16.0.0, SVG Export Plug-In . SVG Version: 6.00 Build 0) --> <svg xmlns="http://www.w3.org/2000/svg" xmlns:xlink="http://www.w3.org/1999/xlink" version="1.1" id="Capa_1" x="0px" y="0px" width="188.643px" height="56.12px" viewBox="0 0 188.643 56.12" xml:space="preserve"> <polygon fill="#2192CD" points="19.619,28.055 19.619,28.556 19.619,28.734 19.619,29.476 19.619,29.782 21.347,29.782 21.347,29.476 21.347,28.734 21.347,28.055 21.107,28.055 "></polygon> <polygon fill="#2192CD" points="23.567,28.055 23.567,28.734 23.567,29.476 23.567,29.782 25.294,29.782 25.294,29.476 25.294,29.034 25.294,28.734 25.294,28.055 24.514,28.055 "></polygon> <polygon fill="#2192CD" points="21.902,20.713 21.902,22.44 23.629,22.44 23.629,20.713 23.502,20.713 22.022,20.713 "></polygon> <path fill="#2192CD" d="M38.411,13.287c-0.284-0.292-0.751-0.299-1.043-0.018l-2.961,2.837c-0.008,0.008-0.845,0.787-1.816,0.787 c-0.508,0-0.968-0.214-1.406-0.651c-1.42-1.421-1.528-4.835-1.45-6.03c0.013-0.204-0.058-0.405-0.199-0.554 c-0.14-0.149-0.335-0.235-0.54-0.235h-5.495V7.287h6.583c0.408,0,0.74-0.331,0.74-0.74V0.764c0-0.409-0.332-0.741-0.74-0.741h-7.148 C22.88,0.009,22.821,0,22.762,0c-0.41,0-0.741,0.331-0.741,0.739v8.684h-5.549c-0.204,0-0.4,0.086-0.54,0.235 c-0.14,0.148-0.212,0.35-0.199,0.554c0.078,1.195-0.03,4.609-1.45,6.03c-0.439,0.438-0.898,0.651-1.406,0.651 c-0.971,0.001-1.808-0.779-1.815-0.786L8.101,13.27c-0.294-0.281-0.76-0.274-1.042,0.018L0.21,20.32 c-0.145,0.148-0.22,0.353-0.209,0.56c0.013,0.207,0.112,0.4,0.273,0.531c0.764,0.621,3.139,3.222,4.023,4.209 c1.555,2.151,1.174,3.844,0.598,6.403c-0.356,1.586-0.762,3.385-0.762,5.656c0,4.822,2.931,9.282,8.712,13.256 c3.561,2.448,8.413,4.603,9.429,5.044c0.01,0.007,0.02,0.014,0.031,0.021c0.12,0.079,0.262,0.118,0.406,0.118 c0,0,0.023,0.001,0.035,0.001c0.148,0,0.295-0.045,0.423-0.128l0.007-0.005c0.974-0.421,5.869-2.591,9.447-5.051 c5.781-3.975,8.712-8.435,8.712-13.257c0-2.271-0.405-4.07-0.762-5.656c-0.576-2.56-0.957-4.253,0.598-6.403 c0.885-0.987,3.259-3.588,4.024-4.209c0.161-0.131,0.26-0.324,0.272-0.531c0.011-0.207-0.064-0.411-0.208-0.56L38.411,13.287z M23.513,1.503h5.83v4.304h-5.83V1.503z M23.501,18.972h2.233v5.66h-5.546v-5.66h1.833H23.501z M25.549,33.823 c-0.541-0.955-1.567-1.605-2.742-1.605c-1.175,0-2.198,0.648-2.741,1.604c-0.259,0.457-0.409,0.985-0.409,1.548v0.136v4.753v0.894 c-0.255-0.099-0.514-0.204-0.785-0.324c-0.232-0.103-0.461-0.193-0.688-0.271v-1.77v-4.755v-2.093v-4.815v-1.011h0.523h0.561h0.18 h0.74h5.546h0.617h0.124h0.74h0.215v1.016v4.815v2.093v4.755v1.704c-0.357,0.138-0.716,0.301-1.08,0.493 c-0.132,0.069-0.263,0.132-0.393,0.193v-0.917V35.51v-0.141C25.957,34.808,25.808,34.281,25.549,33.823 M24.477,35.369v6.323 c-0.487,0.112-0.976,0.171-1.472,0.171c-0.595,0-1.212-0.079-1.868-0.239v-6.255c0-0.019,0.003-0.037,0.004-0.056 c0.001-0.042,0.002-0.085,0.007-0.126c0.091-0.835,0.8-1.488,1.659-1.488C23.727,33.699,24.477,34.448,24.477,35.369 M5.614,37.68 c0-2.107,0.386-3.82,0.726-5.332c0.595-2.642,1.108-4.923-0.869-7.63c-0.014-0.02-0.029-0.038-0.045-0.056 c-0.11-0.124-2.326-2.597-3.623-3.855l5.804-5.96l2.429,2.328c0.051,0.05,1.265,1.199,2.841,1.199c0.908,0,1.733-0.366,2.453-1.086 c1.68-1.68,1.897-4.894,1.901-6.384h4.79v6.586h-2.573c-0.409,0-0.741,0.331-0.741,0.74v6.401h-0.919l-5.453-5.451 c-0.289-0.289-0.757-0.289-1.047,0c-0.033,0.032-0.061,0.067-0.087,0.104l-2.985,2.987c-0.289,0.289-0.289,0.758,0,1.047 l2.435,2.434c0.138,0.14,0.326,0.218,0.523,0.218c0.196,0,0.385-0.078,0.523-0.218l2.559-2.559l2.448,2.448v4.814l-4.369-4.368 c-0.289-0.29-0.757-0.29-1.047,0c-0.033,0.034-0.061,0.069-0.087,0.106l-2.985,2.985c-0.289,0.29-0.289,0.759,0,1.048l2.435,2.434 c0.138,0.139,0.326,0.217,0.523,0.217c0.084,0,0.166-0.017,0.243-0.044c-0.044,0.029-0.089,0.063-0.129,0.103 c-0.033,0.033-0.061,0.068-0.087,0.105l-2.985,2.985c-0.289,0.29-0.289,0.759,0,1.048l2.435,2.434 c0.138,0.141,0.327,0.218,0.523,0.218c0.196,0,0.385-0.077,0.523-0.218l2.559-2.559l2.448,2.448v0.813 c-0.223-0.024-0.444-0.039-0.665-0.039c-1.485,0-2.669,0.563-3.813,1.104c-0.624,0.295-1.212,0.574-1.849,0.768 c-0.354,0.107-0.762,0.163-1.216,0.163c-0.931,0-1.909-0.228-2.714-0.48C5.895,40.406,5.614,39.057,5.614,37.68 M13.205,22.152 l-2.031,2.03l-1.387-1.388l2.029-2.03L13.205,22.152z M12.335,32.938c-0.208-0.208-0.508-0.265-0.769-0.173 c0.047-0.029,0.092-0.063,0.131-0.103l2.559-2.558l2.448,2.446v4.755L12.335,32.938z M13.205,35.91l-2.031,2.031l-1.387-1.39 l2.029-2.029L13.205,35.91z M11.174,31.092l-1.387-1.388l2.029-2.03l1.389,1.388L11.174,31.092z M31.785,49.715 c-3.317,2.281-7.833,4.317-9.051,4.851c-1.158-0.507-5.303-2.374-8.565-4.523c1.184-0.449,2.406-0.61,4.101,0.144 c0.518,0.229,1.015,0.421,1.498,0.583c0.301,0.1,0.598,0.19,0.888,0.266c0.381,0.097,0.751,0.172,1.115,0.225 c0.687,0.101,1.35,0.116,1.998,0.056c0.385-0.036,0.766-0.099,1.143-0.191c0.306-0.075,0.611-0.17,0.915-0.283 c0.404-0.146,0.807-0.323,1.213-0.538c1.562-0.821,2.993-1.063,4.934-0.721C31.91,49.626,31.85,49.671,31.785,49.715 M33.541,48.417 c-2.962-0.777-4.978-0.591-7.191,0.575c-0.132,0.07-0.263,0.133-0.393,0.194c-0.247,0.114-0.494,0.215-0.741,0.3 c-0.245,0.087-0.491,0.159-0.739,0.215c-1.057,0.243-2.14,0.219-3.34-0.074c-0.241-0.058-0.487-0.127-0.74-0.208 c-0.241-0.078-0.488-0.166-0.74-0.264c-0.257-0.098-0.515-0.204-0.785-0.323c-2.653-1.18-4.517-0.534-6.133,0.21 c-0.708-0.523-1.359-1.056-1.962-1.593c0.011-0.003,0.022-0.005,0.032-0.008c0.74-0.228,1.406-0.541,2.05-0.848 c1.251-0.593,2.375-1.123,3.845-0.907c0.236,0.035,0.482,0.089,0.74,0.165c0.23,0.067,0.471,0.157,0.721,0.265 c0.036,0.016,0.07,0.028,0.105,0.044c0.478,0.211,0.938,0.391,1.387,0.546c0.153,0.052,0.306,0.105,0.456,0.151 c0.095,0.027,0.189,0.052,0.284,0.08c0.25,0.068,0.497,0.132,0.74,0.183c1.175,0.247,2.271,0.273,3.34,0.074 c0.248-0.046,0.494-0.108,0.739-0.18c0.166-0.047,0.333-0.101,0.498-0.157c0.081-0.029,0.162-0.058,0.243-0.088 c0.36-0.139,0.721-0.302,1.083-0.492c0.107-0.059,0.215-0.109,0.323-0.161c0.27-0.13,0.538-0.241,0.807-0.335 c0.245-0.087,0.491-0.157,0.74-0.214c1.603-0.363,3.338-0.114,5.908,0.756c0.279,0.094,0.549,0.174,0.81,0.239 C35.001,47.189,34.308,47.809,33.541,48.417 M36.807,45.281c-0.465-0.064-0.966-0.175-1.514-0.361 c-2.672-0.904-4.605-1.193-6.383-0.869c-0.249,0.046-0.496,0.104-0.74,0.174c-0.248,0.07-0.494,0.153-0.74,0.249 c-0.358,0.139-0.717,0.302-1.08,0.493c-0.132,0.069-0.263,0.133-0.393,0.194c-0.167,0.077-0.335,0.15-0.502,0.215 c-0.08,0.03-0.159,0.059-0.239,0.086c-0.245,0.086-0.491,0.157-0.739,0.214c-1.057,0.243-2.14,0.22-3.34-0.073 c-0.241-0.06-0.487-0.128-0.74-0.208c-0.017-0.007-0.034-0.013-0.052-0.019c-0.224-0.073-0.454-0.155-0.688-0.246 c-0.257-0.099-0.515-0.204-0.785-0.323c-0.236-0.105-0.464-0.19-0.688-0.268c-0.253-0.088-0.501-0.159-0.74-0.215 c-0.255-0.059-0.501-0.101-0.74-0.128c-1.809-0.199-3.207,0.459-4.478,1.06c-0.624,0.295-1.212,0.574-1.849,0.77 c-0.291,0.086-0.599,0.136-0.918,0.154c-0.836-0.879-1.528-1.775-2.093-2.687c0.58,0.116,1.19,0.194,1.795,0.194 c0.6,0,1.154-0.076,1.648-0.228c0.74-0.225,1.406-0.54,2.05-0.845c1.043-0.494,2.028-0.961,3.18-0.961 c0.218,0,0.44,0.019,0.665,0.052c0.242,0.036,0.488,0.09,0.74,0.166c0.241,0.072,0.487,0.163,0.74,0.272 c0.029,0.011,0.058,0.022,0.086,0.036c0.483,0.214,0.943,0.395,1.387,0.548c0.252,0.086,0.498,0.162,0.74,0.229 c0.251,0.07,0.498,0.131,0.74,0.182c0.645,0.135,1.262,0.203,1.868,0.203c0.497,0,0.987-0.046,1.472-0.136 c0.248-0.046,0.494-0.104,0.739-0.175c0.248-0.07,0.494-0.151,0.741-0.245c0.361-0.137,0.721-0.299,1.083-0.489 c0.131-0.069,0.261-0.134,0.39-0.193c0.251-0.119,0.496-0.217,0.74-0.306c0.248-0.086,0.495-0.156,0.74-0.214 c0.476-0.107,0.954-0.162,1.456-0.162c1.182,0,2.597,0.293,4.452,0.92c0.993,0.338,1.968,0.509,2.899,0.509 c0.275,0,0.534-0.016,0.781-0.042C38.046,43.646,37.483,44.472,36.807,45.281 M40.042,24.662c-0.016,0.018-0.03,0.036-0.045,0.056 c-1.977,2.707-1.464,4.988-0.869,7.63c0.34,1.512,0.726,3.225,0.726,5.332c0,1.181-0.212,2.344-0.62,3.485 c-0.411,0.117-0.916,0.205-1.517,0.205c-0.769,0-1.584-0.144-2.424-0.429c-2.04-0.691-3.559-0.999-4.927-0.999 c-0.496,0-0.978,0.044-1.456,0.132v-0.67l2.453-2.453l2.559,2.559c0.139,0.141,0.327,0.218,0.524,0.218 c0.196,0,0.384-0.077,0.523-0.218l2.434-2.434c0.289-0.289,0.289-0.758,0-1.048l-2.985-2.984c-0.025-0.037-0.054-0.073-0.087-0.106 c-0.04-0.04-0.084-0.073-0.13-0.103c0.078,0.027,0.16,0.044,0.245,0.044c0.196,0,0.384-0.078,0.523-0.217l2.434-2.434 c0.289-0.289,0.289-0.758,0-1.048l-2.985-2.984c-0.025-0.037-0.054-0.073-0.087-0.107c-0.29-0.29-0.758-0.29-1.047,0l-4.374,4.374 v-4.815l2.453-2.453l2.559,2.559c0.139,0.14,0.327,0.218,0.524,0.218c0.196,0,0.384-0.078,0.523-0.218l2.434-2.434 c0.289-0.289,0.289-0.758,0-1.047l-2.985-2.987c-0.025-0.037-0.054-0.072-0.087-0.104c-0.29-0.289-0.758-0.289-1.047,0l-5.453,5.451 h-0.616V18.23c0-0.409-0.331-0.74-0.74-0.74h-2.974v-6.586h4.737c0.004,1.49,0.22,4.704,1.9,6.384 c0.72,0.721,1.546,1.086,2.453,1.086c1.576,0,2.791-1.149,2.84-1.199l2.43-2.328l5.804,5.96 C42.368,22.065,40.153,24.538,40.042,24.662 M33.922,32.662c0.039,0.04,0.083,0.073,0.13,0.103c-0.26-0.092-0.56-0.035-0.768,0.173 l-4.374,4.374v-4.755l2.453-2.452L33.922,32.662z M32.415,29.062l1.388-1.388l2.029,2.03l-1.386,1.388L32.415,29.062z M35.832,36.552l-1.386,1.39l-2.031-2.031l1.388-1.388L35.832,36.552z M32.415,22.152l1.388-1.388l2.029,2.03l-1.386,1.388 L32.415,22.152z"></path> <polygon fill="#2192CD" points="61.204,20.614 61.234,20.614 65.058,27.292 66.615,27.292 70.44,20.614 70.468,20.614 70.468,29.983 72.842,29.983 72.842,16.001 70.459,16.001 65.865,24.37 65.827,24.37 61.214,16.001 58.831,16.001 58.831,29.983 61.204,29.983 "></polygon> <path fill="#2192CD" d="M82.361,24.974c0,0.5-0.068,0.955-0.201,1.36c-0.136,0.409-0.318,0.741-0.548,0.995 c-0.231,0.256-0.493,0.455-0.788,0.592c-0.296,0.137-0.607,0.206-0.931,0.206c-0.342,0-0.626-0.038-0.857-0.118 c-0.231-0.081-0.425-0.217-0.587-0.41c-0.159-0.191-0.275-0.447-0.349-0.769c-0.073-0.321-0.112-0.72-0.112-1.202v-5.244h-2.2v5.842 c0,0.697,0.086,1.3,0.261,1.811c0.17,0.511,0.421,0.916,0.744,1.215c0.323,0.302,0.697,0.525,1.124,0.668 c0.425,0.145,0.911,0.217,1.455,0.217c0.571,0,1.113-0.119,1.624-0.359c0.512-0.24,0.958-0.587,1.336-1.042h0.029v1.248h2.2v-9.599 h-2.2V24.974z"></path> <path fill="#2192CD" d="M89.531,25.158c0-0.46,0.06-0.879,0.179-1.249c0.118-0.37,0.287-0.678,0.505-0.923 c0.216-0.244,0.478-0.43,0.786-0.558c0.307-0.127,0.649-0.19,1.02-0.19c0.346,0,0.642,0.043,0.888,0.134 c0.247,0.09,0.463,0.233,0.649,0.437c0.186,0.202,0.325,0.476,0.413,0.821c0.09,0.347,0.134,0.769,0.134,1.269v5.095h2.2v-5.661 c0-1.391-0.311-2.42-0.937-3.089c-0.624-0.671-1.486-1.005-2.59-1.005c-0.626,0-1.219,0.124-1.778,0.376 c-0.556,0.249-1.037,0.61-1.44,1.084h-0.03v-1.314h-2.199v9.599h2.199V25.158z"></path> <path fill="#2192CD" d="M100.257,18.95c0.262,0,0.508-0.066,0.734-0.196c0.229-0.132,0.41-0.31,0.542-0.534 c0.138-0.224,0.202-0.469,0.202-0.729c0-0.399-0.145-0.74-0.438-1.028c-0.289-0.289-0.637-0.433-1.041-0.433 c-0.416,0-0.771,0.144-1.059,0.426c-0.287,0.287-0.432,0.631-0.432,1.035c0,0.403,0.145,0.748,0.432,1.034 C99.486,18.807,99.841,18.95,100.257,18.95"></path> <rect x="99.142" y="20.383" fill="#2192CD" width="2.199" height="9.599"></rect> <path fill="#2192CD" d="M110.967,27.426c-0.128,0.104-0.269,0.197-0.423,0.285c-0.155,0.084-0.316,0.16-0.492,0.224 c-0.17,0.064-0.359,0.116-0.561,0.15c-0.201,0.035-0.404,0.053-0.609,0.053c-0.559,0-1.053-0.122-1.484-0.37 c-0.434-0.247-0.77-0.595-1.011-1.042c-0.239-0.449-0.358-0.964-0.358-1.547c0-0.577,0.117-1.088,0.355-1.535 c0.236-0.444,0.569-0.789,0.999-1.037c0.429-0.246,0.924-0.369,1.489-0.369c0.506,0,0.965,0.096,1.373,0.289 c0.41,0.191,0.76,0.456,1.049,0.796l1.498-1.296c-0.469-0.577-1.063-1.019-1.787-1.327c-0.723-0.307-1.473-0.461-2.249-0.461 c-0.96,0-1.815,0.208-2.569,0.624c-0.754,0.417-1.342,1.003-1.763,1.754c-0.423,0.753-0.637,1.615-0.637,2.58 c0,0.967,0.212,1.828,0.631,2.581c0.42,0.751,1.002,1.335,1.744,1.744c0.743,0.409,1.581,0.615,2.518,0.615 c0.884,0,1.685-0.158,2.407-0.473c0.72-0.312,1.302-0.72,1.744-1.219l-1.52-1.345C111.21,27.215,111.094,27.323,110.967,27.426"></path> <path fill="#2192CD" d="M116.071,18.95c0.264,0,0.509-0.066,0.736-0.196c0.227-0.132,0.409-0.31,0.542-0.534 c0.136-0.224,0.201-0.469,0.201-0.729c0-0.399-0.144-0.74-0.437-1.028c-0.291-0.289-0.639-0.433-1.043-0.433 c-0.416,0-0.769,0.144-1.057,0.426c-0.287,0.287-0.433,0.631-0.433,1.035c0,0.403,0.146,0.748,0.433,1.034 C115.303,18.807,115.655,18.95,116.071,18.95"></path> <rect x="114.958" y="20.383" fill="#2192CD" width="2.199" height="9.599"></rect> <path fill="#2192CD" d="M129.468,22.64c-0.195-0.364-0.434-0.695-0.716-0.994c-0.281-0.298-0.593-0.549-0.933-0.758 c-0.338-0.209-0.711-0.368-1.113-0.479c-0.404-0.113-0.823-0.171-1.26-0.171c-1.287,0-2.303,0.436-3.045,1.308h-0.039v-1.162h-2.2 v13.493h2.2v-5.074h0.029c0.73,0.889,1.742,1.335,3.036,1.335c0.525,0,1.026-0.075,1.503-0.228c0.479-0.15,0.907-0.367,1.288-0.653 c0.382-0.283,0.711-0.622,0.99-1.017c0.278-0.396,0.493-0.851,0.644-1.366c0.15-0.515,0.228-1.064,0.228-1.647 c0-0.475-0.054-0.932-0.159-1.374C129.813,23.409,129.664,23.006,129.468,22.64 M127.071,27.326 c-0.512,0.54-1.176,0.813-1.988,0.813c-0.795,0-1.461-0.271-1.999-0.808c-0.538-0.538-0.808-1.237-0.808-2.096 s0.261-1.572,0.783-2.143c0.522-0.571,1.193-0.855,2.012-0.855c0.789,0,1.447,0.274,1.976,0.823 c0.528,0.545,0.793,1.272,0.793,2.175C127.84,26.086,127.583,26.784,127.071,27.326"></path> <path fill="#2192CD" d="M132.649,28.239c0.277,0.394,0.607,0.733,0.988,1.023c0.383,0.286,0.813,0.505,1.288,0.653 c0.476,0.147,0.978,0.22,1.505,0.22c1.307,0,2.325-0.479,3.057-1.441h0.027v1.288h2.106v-9.6h-2.201v1.153h-0.038 c-0.73-0.866-1.721-1.298-2.971-1.298c-0.653,0-1.266,0.124-1.834,0.376c-0.572,0.248-1.061,0.59-1.471,1.027 c-0.412,0.438-0.734,0.964-0.973,1.587c-0.236,0.62-0.354,1.286-0.354,1.998c0,0.582,0.074,1.133,0.225,1.646 C132.155,27.39,132.37,27.843,132.649,28.239 M134.233,23.989c0.146-0.38,0.344-0.697,0.592-0.951 c0.251-0.251,0.543-0.449,0.881-0.59c0.336-0.14,0.695-0.211,1.079-0.211c0.784,0,1.432,0.286,1.946,0.862 c0.516,0.572,0.774,1.285,0.774,2.137c0,0.85-0.265,1.549-0.793,2.09c-0.526,0.54-1.175,0.813-1.937,0.813 c-0.813,0-1.477-0.272-1.989-0.813c-0.513-0.541-0.771-1.24-0.771-2.09C134.017,24.786,134.091,24.371,134.233,23.989"></path> <rect x="144.532" y="15.491" fill="#2192CD" width="2.201" height="14.49"></rect> <rect x="149.882" y="20.383" fill="#2192CD" width="2.199" height="9.599"></rect> <path fill="#2192CD" d="M150.995,18.95c0.263,0,0.509-0.066,0.735-0.196c0.228-0.132,0.41-0.31,0.542-0.534 c0.137-0.224,0.202-0.469,0.202-0.729c0-0.399-0.146-0.74-0.437-1.028c-0.291-0.289-0.639-0.433-1.043-0.433 c-0.416,0-0.769,0.144-1.058,0.426c-0.288,0.287-0.432,0.631-0.432,1.035c0,0.403,0.144,0.748,0.432,1.034 C150.227,18.807,150.579,18.95,150.995,18.95"></path> <path fill="#2192CD" d="M156.368,29.263c0.381,0.286,0.811,0.505,1.287,0.653c0.477,0.147,0.979,0.22,1.506,0.22 c1.35,0,2.392-0.479,3.122-1.441h0.036v1.288h2.106V15.491h-2.2v6.045h-0.05c-0.729-0.866-1.741-1.297-3.036-1.297 c-0.654,0-1.265,0.123-1.835,0.375c-0.569,0.248-1.061,0.59-1.472,1.027c-0.408,0.437-0.73,0.964-0.969,1.587 c-0.237,0.62-0.355,1.286-0.355,1.998c0,0.582,0.076,1.133,0.227,1.646c0.149,0.517,0.365,0.97,0.643,1.366 C155.657,28.633,155.987,28.973,156.368,29.263 M156.964,23.989c0.143-0.38,0.341-0.697,0.591-0.951 c0.25-0.251,0.544-0.449,0.88-0.59c0.336-0.14,0.696-0.211,1.08-0.211c0.82,0,1.491,0.285,2.014,0.854 c0.522,0.571,0.785,1.284,0.785,2.145c0,0.856-0.271,1.556-0.809,2.094s-1.206,0.808-1.999,0.808c-0.813,0-1.478-0.271-1.989-0.812 c-0.513-0.541-0.77-1.24-0.77-2.09C156.747,24.786,156.819,24.372,156.964,23.989"></path> <path fill="#2192CD" d="M174.334,21.537h-0.039c-0.729-0.866-1.72-1.3-2.968-1.3c-0.655,0-1.266,0.125-1.837,0.376 c-0.57,0.248-1.06,0.592-1.47,1.028c-0.41,0.438-0.733,0.964-0.971,1.586c-0.236,0.62-0.355,1.286-0.355,1.998 c0,0.583,0.074,1.133,0.226,1.647c0.151,0.516,0.366,0.971,0.644,1.366c0.279,0.395,0.609,0.733,0.99,1.023 c0.381,0.287,0.811,0.505,1.287,0.654c0.477,0.146,0.979,0.22,1.504,0.22c1.309,0,2.326-0.481,3.057-1.442h0.029v1.288h2.104v-9.6 h-2.201V21.537z M173.628,27.326c-0.527,0.54-1.175,0.813-1.938,0.813c-0.813,0-1.477-0.272-1.987-0.813 c-0.515-0.542-0.769-1.24-0.769-2.091c0-0.45,0.071-0.863,0.215-1.246c0.145-0.381,0.341-0.696,0.592-0.95 c0.248-0.252,0.542-0.45,0.879-0.591c0.336-0.14,0.697-0.211,1.082-0.211c0.781,0,1.43,0.286,1.943,0.861 c0.517,0.573,0.774,1.286,0.774,2.137S174.156,26.784,173.628,27.326"></path> <path fill="#2192CD" d="M186.442,15.491v6.045h-0.047c-0.729-0.866-1.744-1.298-3.037-1.298c-0.651,0-1.266,0.124-1.834,0.376 c-0.572,0.248-1.063,0.591-1.471,1.027c-0.411,0.438-0.734,0.964-0.971,1.585c-0.238,0.621-0.357,1.287-0.357,1.999 c0,0.583,0.077,1.134,0.229,1.647c0.148,0.517,0.365,0.971,0.642,1.366c0.28,0.394,0.608,0.733,0.991,1.023 c0.38,0.286,0.811,0.505,1.287,0.653c0.477,0.147,0.979,0.22,1.503,0.22c1.353,0,2.394-0.479,3.125-1.441h0.036v1.288h2.104V15.491 H186.442z M185.722,27.33c-0.539,0.538-1.204,0.808-1.999,0.808c-0.812,0-1.476-0.271-1.987-0.811 c-0.513-0.542-0.77-1.241-0.77-2.091c0-0.45,0.072-0.864,0.216-1.247c0.144-0.38,0.343-0.697,0.591-0.95 c0.25-0.252,0.543-0.45,0.881-0.59c0.336-0.141,0.695-0.212,1.08-0.212c0.819,0,1.49,0.286,2.012,0.854 c0.523,0.571,0.785,1.285,0.785,2.145C186.53,26.093,186.26,26.792,185.722,27.33"></path> <path fill="#2192CD" d="M65.693,41.218h-0.047c-0.731-0.867-1.744-1.299-3.037-1.299c-0.654,0-1.267,0.124-1.836,0.376 c-0.571,0.248-1.061,0.591-1.469,1.027c-0.411,0.438-0.734,0.963-0.972,1.585c-0.237,0.621-0.357,1.288-0.357,2 c0,0.582,0.078,1.133,0.227,1.646c0.151,0.516,0.366,0.972,0.644,1.366c0.279,0.395,0.609,0.733,0.99,1.024 c0.381,0.286,0.81,0.504,1.287,0.652c0.477,0.146,0.979,0.221,1.504,0.221c1.352,0,2.393-0.48,3.124-1.441h0.037v1.287h2.104V35.172 h-2.199V41.218z M64.971,47.011c-0.538,0.538-1.204,0.808-1.999,0.808c-0.812,0-1.476-0.271-1.988-0.811 c-0.512-0.542-0.768-1.241-0.768-2.091c0-0.449,0.071-0.864,0.216-1.247c0.143-0.38,0.341-0.697,0.591-0.951 c0.249-0.251,0.543-0.45,0.879-0.589c0.336-0.141,0.696-0.212,1.081-0.212c0.819,0,1.49,0.286,2.012,0.854 c0.522,0.571,0.784,1.285,0.784,2.145C65.779,45.773,65.51,46.473,64.971,47.011"></path> <path fill="#2192CD" d="M77.319,40.543c-0.709-0.416-1.529-0.624-2.459-0.624c-0.659,0-1.277,0.12-1.854,0.361 c-0.577,0.238-1.073,0.573-1.491,1.003c-0.416,0.431-0.742,0.951-0.978,1.565c-0.238,0.616-0.356,1.287-0.356,2.01 c0,0.98,0.215,1.85,0.643,2.611c0.429,0.758,1.016,1.337,1.76,1.743c0.742,0.401,1.579,0.604,2.506,0.604 c0.899,0,1.688-0.164,2.37-0.489C78.144,49,78.703,48.559,79.138,48L77.6,46.685c-0.602,0.757-1.399,1.134-2.393,1.134 c-0.704,0-1.302-0.196-1.791-0.588c-0.491-0.389-0.805-0.925-0.947-1.604h6.996c0.038-0.23,0.057-0.522,0.057-0.873 c0-0.931-0.189-1.76-0.566-2.49C78.575,41.534,78.032,40.96,77.319,40.543 M72.506,43.849c0.154-0.615,0.453-1.09,0.893-1.426 c0.444-0.336,0.968-0.505,1.576-0.505c0.41,0,0.778,0.082,1.101,0.246c0.323,0.161,0.588,0.387,0.788,0.672 c0.202,0.285,0.351,0.623,0.447,1.013H72.506z"></path> <path fill="#2192CD" d="M91.366,38.39c0.692-0.407,1.486-0.614,2.383-0.614c0.723,0,1.414,0.175,2.071,0.521 c0.655,0.345,1.219,0.812,1.688,1.393l1.746-1.48c-0.729-0.903-1.576-1.575-2.541-2.018s-1.953-0.662-2.965-0.662 c-0.884,0-1.705,0.121-2.465,0.362c-0.759,0.245-1.417,0.585-1.974,1.024c-0.558,0.441-1.034,0.958-1.433,1.552 c-0.397,0.599-0.692,1.255-0.888,1.976c-0.196,0.723-0.293,1.48-0.293,2.281c0,0.897,0.122,1.729,0.364,2.494 c0.244,0.767,0.584,1.426,1.019,1.981c0.435,0.553,0.95,1.027,1.543,1.422c0.593,0.392,1.237,0.686,1.936,0.878 c0.699,0.192,1.43,0.29,2.191,0.29c1.165,0,2.216-0.24,3.147-0.722c0.933-0.48,1.719-1.123,2.358-1.932l-1.746-1.489 c-0.47,0.58-1.023,1.046-1.664,1.39c-0.643,0.341-1.34,0.513-2.096,0.513c-0.877,0-1.663-0.203-2.359-0.604 c-0.695-0.405-1.239-0.974-1.629-1.705c-0.39-0.733-0.586-1.572-0.586-2.516c0-0.979,0.192-1.844,0.576-2.594 C90.136,39.381,90.674,38.801,91.366,38.39"></path> <polygon fill="#2192CD" points="109.287,35.874 106.865,35.883 104.608,38.728 106.849,38.728 "></polygon> <path fill="#2192CD" d="M108.396,40.539c-0.762-0.412-1.631-0.62-2.605-0.62c-0.992,0-1.875,0.214-2.647,0.648 c-0.772,0.434-1.365,1.023-1.777,1.772c-0.414,0.75-0.62,1.597-0.62,2.538c0,0.697,0.122,1.351,0.366,1.96 c0.242,0.609,0.581,1.133,1.013,1.571c0.434,0.44,0.967,0.782,1.602,1.033c0.633,0.249,1.322,0.375,2.064,0.375 c0.969,0,1.834-0.206,2.6-0.618c0.765-0.417,1.363-0.999,1.793-1.752c0.43-0.751,0.643-1.608,0.643-2.569 c0-0.966-0.213-1.83-0.643-2.585C109.753,41.537,109.156,40.951,108.396,40.539 M107.779,46.986c-0.538,0.556-1.2,0.832-1.989,0.832 c-0.813,0-1.484-0.283-2.014-0.846c-0.527-0.563-0.793-1.262-0.793-2.095c0-0.846,0.261-1.551,0.779-2.114 c0.519-0.564,1.195-0.846,2.027-0.846c0.803,0,1.467,0.274,2,0.826c0.531,0.552,0.797,1.262,0.797,2.134 C108.587,45.729,108.317,46.433,107.779,46.986"></path> <path fill="#2192CD" d="M116.684,40.325c-0.517,0.273-0.963,0.666-1.34,1.18h-0.03v-1.441h-2.199v9.601h2.199v-4.557 c0-0.524,0.102-0.993,0.303-1.406c0.203-0.416,0.502-0.742,0.902-0.984c0.4-0.245,0.873-0.368,1.417-0.368 c0.193,0,0.415,0.012,0.665,0.03v-2.45c-0.051-0.007-0.143-0.01-0.27-0.01C117.747,39.919,117.2,40.055,116.684,40.325"></path> <path fill="#2192CD" d="M127.302,41.218h-0.049c-0.73-0.867-1.742-1.299-3.037-1.299c-0.654,0-1.265,0.124-1.835,0.376 c-0.569,0.248-1.06,0.591-1.471,1.027c-0.408,0.438-0.731,0.963-0.97,1.585c-0.236,0.621-0.354,1.288-0.354,2 c0,0.582,0.075,1.133,0.226,1.646c0.15,0.516,0.365,0.972,0.643,1.366c0.279,0.395,0.609,0.733,0.991,1.024 c0.38,0.286,0.81,0.504,1.286,0.652c0.478,0.146,0.979,0.221,1.506,0.221c1.35,0,2.392-0.48,3.121-1.441h0.039v1.287h2.104V35.172 h-2.2V41.218z M126.582,47.011c-0.538,0.538-1.207,0.808-2,0.808c-0.813,0-1.478-0.271-1.989-0.811 c-0.512-0.542-0.769-1.241-0.769-2.091c0-0.449,0.071-0.864,0.216-1.247c0.145-0.38,0.341-0.697,0.591-0.951 c0.25-0.251,0.544-0.45,0.88-0.589c0.336-0.141,0.696-0.212,1.082-0.212c0.818,0,1.489,0.286,2.01,0.854 c0.524,0.571,0.787,1.285,0.787,2.145C127.39,45.773,127.12,46.473,126.582,47.011"></path> <path fill="#2192CD" d="M139.439,40.539c-0.763-0.412-1.63-0.62-2.604-0.62c-0.994,0-1.875,0.214-2.647,0.648 c-0.772,0.434-1.365,1.023-1.777,1.772c-0.415,0.75-0.62,1.597-0.62,2.538c0,0.697,0.123,1.351,0.365,1.96s0.582,1.133,1.014,1.571 c0.433,0.441,0.965,0.782,1.6,1.033c0.634,0.249,1.322,0.375,2.066,0.375c0.969,0,1.834-0.206,2.599-0.618 c0.766-0.418,1.364-0.998,1.793-1.752c0.431-0.751,0.644-1.608,0.644-2.569c0-0.967-0.213-1.83-0.644-2.585 C140.798,41.537,140.201,40.951,139.439,40.539 M138.824,46.986c-0.538,0.556-1.2,0.832-1.989,0.832 c-0.813,0-1.483-0.283-2.014-0.846c-0.527-0.563-0.793-1.262-0.793-2.095c0-0.846,0.26-1.551,0.78-2.114 c0.518-0.564,1.194-0.846,2.026-0.846c0.801,0,1.467,0.274,1.998,0.826c0.533,0.552,0.799,1.262,0.799,2.134 C139.632,45.729,139.362,46.433,138.824,46.986"></path> <path fill="#2192CD" d="M153.206,41.896c-0.28-0.409-0.608-0.758-0.986-1.054c-0.377-0.296-0.805-0.522-1.281-0.684 c-0.477-0.159-0.976-0.24-1.496-0.24c-1.293,0-2.307,0.434-3.037,1.298h-0.047v-6.044h-2.201v14.491h2.104v-1.288h0.038 c0.73,0.962,1.773,1.442,3.124,1.442c0.66,0,1.276-0.117,1.849-0.351c0.574-0.232,1.066-0.563,1.477-0.984 c0.41-0.423,0.732-0.944,0.97-1.56c0.238-0.614,0.357-1.284,0.357-2.016c0-0.571-0.077-1.114-0.229-1.628 C153.698,42.761,153.483,42.3,153.206,41.896 M151.067,47.007c-0.513,0.54-1.176,0.813-1.988,0.813c-0.795,0-1.461-0.271-1.998-0.81 c-0.538-0.537-0.809-1.235-0.809-2.094c0-0.341,0.041-0.662,0.129-0.967c0.086-0.303,0.213-0.579,0.379-0.824 c0.168-0.248,0.363-0.462,0.587-0.639c0.225-0.18,0.481-0.32,0.774-0.421c0.291-0.098,0.6-0.147,0.926-0.147 c0.789,0,1.447,0.274,1.976,0.823c0.528,0.545,0.794,1.272,0.794,2.175C151.837,45.768,151.579,46.465,151.067,47.007"></path> <path fill="#2192CD" d="M163.417,41.216h-0.039c-0.73-0.864-1.721-1.298-2.971-1.298c-0.652,0-1.265,0.125-1.834,0.376 c-0.572,0.248-1.06,0.591-1.47,1.028c-0.411,0.437-0.735,0.964-0.974,1.586c-0.235,0.621-0.354,1.287-0.354,1.999 c0,0.582,0.075,1.132,0.225,1.646c0.15,0.518,0.365,0.973,0.646,1.366c0.276,0.396,0.606,0.734,0.988,1.025 c0.382,0.287,0.811,0.505,1.288,0.653c0.476,0.146,0.978,0.22,1.505,0.22c1.306,0,2.325-0.48,3.056-1.442h0.028v1.288h2.104v-9.599 h-2.199V41.216z M162.708,47.007c-0.525,0.54-1.174,0.813-1.936,0.813c-0.814,0-1.477-0.272-1.99-0.813 c-0.511-0.542-0.768-1.239-0.768-2.091c0-0.449,0.072-0.864,0.215-1.246c0.146-0.381,0.344-0.697,0.592-0.951 c0.251-0.251,0.543-0.449,0.881-0.59c0.336-0.141,0.695-0.211,1.08-0.211c0.782,0,1.432,0.286,1.945,0.861 c0.516,0.573,0.775,1.286,0.775,2.137C163.503,45.768,163.237,46.465,162.708,47.007"></path> </svg> 